<svg id="图层_1" data-name="图层 1" xmlns="http://www.w3.org/2000/svg" viewBox="0 0 139.65 160.15"><defs><style>.cls-1{fill:#083683;}.cls-2{font-size:19.78px;}.cls-2,.cls-3,.cls-4,.cls-5,.cls-7{fill:#fff;}.cls-2,.cls-3,.cls-7{font-family:SourceHanSansCN-Heavy, SourceHanSansCN Heavy-GBpc-EUC-H;font-weight:800;}.cls-3{font-size:6.19px;}.cls-10,.cls-4,.cls-6,.cls-7{stroke:#fff;}.cls-10,.cls-4,.cls-7{stroke-miterlimit:10;}.cls-4{stroke-width:0.4px;}.cls-10,.cls-6{fill:none;}.cls-6{stroke-linecap:round;stroke-linejoin:round;stroke-width:0.4px;}.cls-7{font-size:34.68px;stroke-width:0.41px;letter-spacing:0.01em;}.cls-8{letter-spacing:0.07em;}.cls-9{fill:#023591;}.cls-10{stroke-width:0.79px;}</style></defs><title>002</title><polygon class="cls-1" points="0.11 0 139.65 0 139.54 110.96 69.88 160.15 0 110.96 0.11 0"/><text class="cls-2" transform="translate(7.24 27.92) scale(1.06 1)">深圳技术大学</text><text class="cls-3" transform="translate(7.24 36.33) scale(1.06 1)">SHENZHEN TECHNOLOGY UNIVERSITY</text><line class="cls-4" x1="5.76" y1="39.99" x2="134" y2="39.99"/><polyline class="cls-5" points="23.74 122.87 15.95 117.22 16.06 100.3 23.85 100.3 23.74 122.87"/><polyline class="cls-5" points="43.77 137.18 35.91 131.61 36.02 100.3 43.89 100.3 43.77 137.18"/><polyline class="cls-5" points="55.95 146 56.06 100.3 63.85 100.3 63.73 151.57 55.95 146"/><polyline class="cls-5" points="83.77 146 75.98 151.57 76.1 100.3 83.88 100.3 83.77 146"/><polyline class="cls-5" points="103.84 100.3 103.73 131.61 95.94 137.18 96.06 100.3 103.84 100.3"/><polyline class="cls-5" points="115.98 122.87 116.09 100.3 123.88 100.3 123.77 117.22 115.98 122.87"/><polyline class="cls-5" points="67.86 80.34 67.86 96.06 49.99 96.06 49.99 80.34 67.86 80.34"/><polyline class="cls-5" points="27.97 80.34 45.77 80.34 45.77 96.06 27.97 96.06 27.97 80.34"/><polyline class="cls-5" points="5.88 80.34 23.76 80.34 23.76 96.06 5.88 96.06 5.88 80.34"/><polyline class="cls-5" points="72.08 80.34 72.08 96.06 89.96 96.06 89.96 80.34 72.08 80.34"/><polyline class="cls-5" points="94.09 80.34 94.09 96.06 111.97 96.06 111.97 80.34 94.09 80.34"/><polyline class="cls-5" points="134.06 80.34 116.19 80.34 116.19 96.06 134.06 96.06 134.06 80.34"/><polygon class="cls-6" points="5.76 5.3 134 5.3 133.89 108.81 69.77 155.72 5.65 108.81 5.76 5.3"/><text class="cls-7" transform="translate(6.36 71.93) scale(1.37 1)">SZTU<tspan class="cls-8" x="70.74" y="0"> </tspan></text><line class="cls-4" x1="5.76" y1="75.35" x2="134" y2="75.35"/><polygon class="cls-9" points="0.11 0 139.65 0 139.54 110.96 69.88 160.15 0 110.96 0.11 0"/><polygon class="cls-10" points="5.69 5.3 134.06 5.3 133.96 108.49 69.88 153.74 5.59 108.49 5.69 5.3"/><path class="cls-5" d="M241.51,40.52a26.07,26.07,0,0,0-3.64-2.31l1.36-2.16A28.12,28.12,0,0,1,243,38.11Zm2,2.38c-.94,2.08-2,4.21-3.1,6.19l-2.26-2a63,63,0,0,0,3.39-6.17Zm-1.4-8.06a30.85,30.85,0,0,0-3.48-2l1.51-2.22a32.29,32.29,0,0,1,3.53,1.74Zm11.62,7.82a13.38,13.38,0,0,0,4.17,3.48,12.18,12.18,0,0,0-2.12,2.24,14.52,14.52,0,0,1-3.59-3.58V49h-3.1V44.68a13.23,13.23,0,0,1-4.37,3.84,11.9,11.9,0,0,0-2-2.16,12.08,12.08,0,0,0,4.77-3.7H244.1V40.11h5V38.25h3.1v1.86h4.95v2.55Zm-3.59-7.5a16.82,16.82,0,0,1-4.37,4.59,23.1,23.1,0,0,0-2.07-2,11.18,11.18,0,0,0,2.69-2.13h-2.3V31.3h13.07v4.22h-2.61A19.6,19.6,0,0,1,257,38.27l-2.32,1.5a24.43,24.43,0,0,0-3.81-4.29L253,34.15c.44.38.92.79,1.38,1.23V33.72h-7.67v1.54a9.47,9.47,0,0,0,.69-.95Z" transform="translate(-230.17 -19.5)"/><path class="cls-5" d="M267.22,31.12h3v6.93c0,3.8-.21,8-2.26,11.16a15.36,15.36,0,0,0-3-1.56,10.66,10.66,0,0,0,1.5-3.07c-2.26.91-4.72,1.82-6.73,2.57l-1-3c.75-.2,1.65-.48,2.65-.8V38h-2.26V35.16h2.26V30.79h3.06v4.37h2.13V38h-2.13V42.4l1.69-.57.48,2.16a24.42,24.42,0,0,0,.57-6Zm3.89,1.07H274V46.54h-2.86Zm7-1.22V49.05H275V31Z" transform="translate(-230.17 -19.5)"/><path class="cls-5" d="M287.31,41.45l-2.09.52V46.2c0,1.31-.23,2-1,2.44a7.34,7.34,0,0,1-3.39.51,10.17,10.17,0,0,0-.84-2.61c.74,0,1.59,0,1.86,0s.4-.1.4-.38V42.66l-1.78.4-.75-2.75c.73-.12,1.59-.28,2.53-.48v-3H280V34.13h2.26V30.49h3v3.64h1.93v2.65h-1.93V39.2l1.74-.38Zm11.9-3a14.23,14.23,0,0,1-3.72,6.64A15.44,15.44,0,0,0,300,46.84a11.39,11.39,0,0,0-1.92,2.47,15.91,15.91,0,0,1-5-2.3,19.62,19.62,0,0,1-5.25,2.22,10.39,10.39,0,0,0-1.64-2.59A16.13,16.13,0,0,0,290.81,45a16.2,16.2,0,0,1-2.7-4.3l1-.25h-1.34v-2.6h3.93v-2H287.4V33.16h4.26V30.49h3v2.67h4.51v2.63h-4.51v2h2.07l.5-.1Zm-8.15,2a11.56,11.56,0,0,0,2.09,2.9,10.42,10.42,0,0,0,2.22-2.9Z" transform="translate(-230.17 -19.5)"/><path class="cls-5" d="M313.69,38.11a24.6,24.6,0,0,0,7.13,6.61,14.35,14.35,0,0,0-2.45,2.59,27.18,27.18,0,0,1-6-6.33v8.33H309V42a20.08,20.08,0,0,1-6.23,5.48,16.92,16.92,0,0,0-2.32-2.55,18.84,18.84,0,0,0,7.72-6.81h-6.8V35.28H309V30.51h3.37v4.77h3.7a30.56,30.56,0,0,0-3.26-3l2.26-1.74a38.18,38.18,0,0,1,3.43,2.77l-2.34,1.92h3.68v2.83Z" transform="translate(-230.17 -19.5)"/><path class="cls-5" d="M333.81,38.6a12.73,12.73,0,0,0,7.63,7.88,12.54,12.54,0,0,0-2.26,2.73,14.44,14.44,0,0,1-7.59-7.74,14,14,0,0,1-7.53,7.74,9.12,9.12,0,0,0-2.3-2.45c4.58-2,6.51-4.93,7.34-8.16h-6.92v-3h7.43c.14-1.74.12-3.49.14-5.13h3.35c0,1.64,0,3.39-.21,5.13h8v3Z" transform="translate(-230.17 -19.5)"/><path class="cls-5" d="M361.9,44.34H354v1.84c0,1.41-.35,2.14-1.46,2.54a12.74,12.74,0,0,1-4.23.45,11,11,0,0,0-1.21-2.77c1.17.06,2.82.06,3.24,0s.54-.08.54-.34V44.34h-7.78V41.71h7.78V40.56a12.55,12.55,0,0,0,1.66-.79h-5.57V37.3h9l.62-.14,1.93,1.44a21.78,21.78,0,0,1-4.54,3v.12h7.95Zm-15.83-6.19h-2.85V33.56h3.08a16.29,16.29,0,0,0-1.28-1.8l2.59-1.09a10.76,10.76,0,0,1,1.86,2.53l-.81.36h2.95a14.09,14.09,0,0,0-1.24-2.32l2.7-.95a11.12,11.12,0,0,1,1.61,2.77l-1.36.5h2.37a18.76,18.76,0,0,0,1.63-2.93l3.18.87c-.53.71-1.07,1.43-1.59,2.06h2.82v4.59h-3V36.07H346.07Z" transform="translate(-230.17 -19.5)"/><path class="cls-5" d="M237.67,55.25l.66-.77a2,2,0,0,0,1.18.47c.44,0,.64-.15.64-.4s-.27-.35-.69-.52l-.62-.25a1.36,1.36,0,0,1-1-1.26c0-.77.73-1.39,1.77-1.39a2.33,2.33,0,0,1,1.58.6l-.58.7a1.63,1.63,0,0,0-1-.36c-.36,0-.59.14-.59.39s.31.35.74.51l.61.23a1.28,1.28,0,0,1,1,1.26c0,.77-.68,1.45-1.86,1.45A2.79,2.79,0,0,1,237.67,55.25Z" transform="translate(-230.17 -19.5)"/><path class="cls-5" d="M242.16,51.21h1.17V53h1.6V51.21h1.16v4.61h-1.16V53.93h-1.6v1.89h-1.17Z" transform="translate(-230.17 -19.5)"/><path class="cls-5" d="M247.23,51.21h3.09v.92H248.4V53H250v.93H248.4v1h2v.93h-3.16Z" transform="translate(-230.17 -19.5)"/><path class="cls-5" d="M251.35,51.21h1.19l1.21,2.21.48,1h0a14.93,14.93,0,0,1-.15-1.7V51.21h1.11v4.61H254l-1.21-2.22-.47-1h0a15.14,15.14,0,0,1,.15,1.7v1.53h-1.11Z" transform="translate(-230.17 -19.5)"/><path class="cls-5" d="M256.05,55.15l2.1-3h-1.9v-.92h3.34v.67l-2.1,3h2.12v.93h-3.56Z" transform="translate(-230.17 -19.5)"/><path class="cls-5" d="M260.41,51.21h1.17V53h1.6V51.21h1.16v4.61h-1.16V53.93h-1.6v1.89h-1.17Z" transform="translate(-230.17 -19.5)"/><path class="cls-5" d="M265.47,51.21h3.09v.92h-1.91V53h1.63v.93h-1.63v1h2v.93h-3.17Z" transform="translate(-230.17 -19.5)"/><path class="cls-5" d="M269.6,51.21h1.19L272,53.42l.48,1h0a14.93,14.93,0,0,1-.15-1.7V51.21h1.11v4.61h-1.19l-1.21-2.22-.48-1h0c.05.51.15,1.14.15,1.7v1.53H269.6Z" transform="translate(-230.17 -19.5)"/><path class="cls-5" d="M277,52.13h-1.31v-.92h3.81v.92h-1.32v3.69H277Z" transform="translate(-230.17 -19.5)"/><path class="cls-5" d="M280.29,51.21h3.09v.92h-1.92V53h1.63v.93h-1.63v1h2v.93h-3.16Z" transform="translate(-230.17 -19.5)"/><path class="cls-5" d="M284.19,53.54a2.28,2.28,0,0,1,2.33-2.41,2.12,2.12,0,0,1,1.48.6l-.62.7a1.22,1.22,0,0,0-.84-.36c-.63,0-1.15.54-1.15,1.44s.45,1.44,1.14,1.44a1.29,1.29,0,0,0,.93-.42l.61.7a2.07,2.07,0,0,1-1.59.68A2.2,2.2,0,0,1,284.19,53.54Z" transform="translate(-230.17 -19.5)"/><path class="cls-5" d="M288.78,51.21H290V53h1.6V51.21h1.16v4.61h-1.16V53.93H290v1.89h-1.18Z" transform="translate(-230.17 -19.5)"/><path class="cls-5" d="M293.85,51.21H295l1.21,2.21.48,1h0a12.91,12.91,0,0,1-.16-1.7V51.21h1.11v4.61h-1.19l-1.2-2.22-.48-1h0a15.09,15.09,0,0,1,.16,1.7v1.53h-1.12Z" transform="translate(-230.17 -19.5)"/><path class="cls-5" d="M298.63,53.49a2.24,2.24,0,1,1,4.47,0,2.24,2.24,0,1,1-4.47,0Zm3.28,0c0-.89-.4-1.42-1.05-1.42s-1,.53-1,1.42.39,1.46,1,1.46S301.91,54.39,301.91,53.49Z" transform="translate(-230.17 -19.5)"/><path class="cls-5" d="M304,51.21h1.17v3.68h1.9v.93H304Z" transform="translate(-230.17 -19.5)"/><path class="cls-5" d="M307.41,53.49a2.23,2.23,0,1,1,4.46,0,2.24,2.24,0,1,1-4.46,0Zm3.27,0c0-.89-.4-1.42-1-1.42s-1,.53-1,1.42.4,1.46,1,1.46S310.68,54.39,310.68,53.49Z" transform="translate(-230.17 -19.5)"/><path class="cls-5" d="M312.55,53.54a2.3,2.3,0,0,1,2.4-2.41,2.22,2.22,0,0,1,1.56.6l-.62.7a1.32,1.32,0,0,0-.9-.36,1.27,1.27,0,0,0-1.24,1.44c0,.91.43,1.44,1.34,1.44a.89.89,0,0,0,.46-.11v-.75h-.77v-.9h1.81v2.15a2.48,2.48,0,0,1-1.62.57A2.24,2.24,0,0,1,312.55,53.54Z" transform="translate(-230.17 -19.5)"/><path class="cls-5" d="M318.42,54.19l-1.47-3h1.25l.4,1,.4,1h0c.14-.36.27-.68.41-1l.4-1h1.23l-1.48,3v1.63h-1.16Z" transform="translate(-230.17 -19.5)"/><path class="cls-5" d="M323,53.65V51.21h1.16v2.56c0,.88.28,1.18.82,1.18s.82-.3.82-1.18V51.21H327v2.44c0,1.56-.66,2.26-1.95,2.26S323,55.21,323,53.65Z" transform="translate(-230.17 -19.5)"/><path class="cls-5" d="M328.05,51.21h1.19l1.21,2.21.48,1h0a14.93,14.93,0,0,1-.15-1.7V51.21h1.11v4.61h-1.19l-1.21-2.22-.47-1h0a15.14,15.14,0,0,1,.15,1.7v1.53h-1.11Z" transform="translate(-230.17 -19.5)"/><path class="cls-5" d="M333.05,51.21h1.17v4.61h-1.17Z" transform="translate(-230.17 -19.5)"/><path class="cls-5" d="M334.72,51.21H336l.56,2.1c.14.5.23,1,.38,1.48h0c.14-.5.24-1,.38-1.48l.55-2.1h1.19l-1.47,4.61h-1.4Z" transform="translate(-230.17 -19.5)"/><path class="cls-5" d="M339.55,51.21h3.09v.92h-1.91V53h1.63v.93h-1.63v1h2v.93h-3.17Z" transform="translate(-230.17 -19.5)"/><path class="cls-5" d="M346.31,55.82l-.9-1.62h-.56v1.62h-1.17V51.21h1.79c1,0,1.9.34,1.9,1.45a1.34,1.34,0,0,1-.84,1.33l1.09,1.83Zm-1.46-2.49h.53c.55,0,.85-.23.85-.67s-.3-.57-.85-.57h-.53Z" transform="translate(-230.17 -19.5)"/><path class="cls-5" d="M347.9,55.25l.66-.77a2,2,0,0,0,1.19.47c.43,0,.63-.15.63-.4s-.26-.35-.68-.52l-.63-.25a1.35,1.35,0,0,1-1-1.26c0-.77.73-1.39,1.76-1.39a2.35,2.35,0,0,1,1.59.6l-.58.7a1.68,1.68,0,0,0-1-.36c-.36,0-.58.14-.58.39s.31.35.74.51l.61.23a1.28,1.28,0,0,1,1,1.26c0,.77-.68,1.45-1.86,1.45A2.83,2.83,0,0,1,347.9,55.25Z" transform="translate(-230.17 -19.5)"/><path class="cls-5" d="M352.39,51.21h1.18v4.61h-1.18Z" transform="translate(-230.17 -19.5)"/><path class="cls-5" d="M355.63,52.13h-1.32v-.92h3.81v.92H356.8v3.69h-1.17Z" transform="translate(-230.17 -19.5)"/><path class="cls-5" d="M359.58,54.19l-1.47-3h1.25l.4,1c.13.34.26.66.39,1h0c.14-.36.27-.68.41-1l.4-1h1.23l-1.48,3v1.63h-1.16Z" transform="translate(-230.17 -19.5)"/><line class="cls-4" x1="5.76" y1="39.99" x2="134" y2="39.99"/><polyline class="cls-5" points="67.86 79.9 67.86 95.63 49.99 95.63 49.99 79.9 67.86 79.9"/><polyline class="cls-5" points="27.97 79.9 45.77 79.9 45.77 95.63 27.97 95.63 27.97 79.9"/><polyline class="cls-5" points="5.88 79.9 23.76 79.9 23.76 95.63 5.88 95.63 5.88 79.9"/><polyline class="cls-5" points="72.08 79.9 72.08 95.63 89.96 95.63 89.96 79.9 72.08 79.9"/><polyline class="cls-5" points="94.09 79.9 94.09 95.63 111.97 95.63 111.97 79.9 94.09 79.9"/><polyline class="cls-5" points="134.06 79.9 116.19 79.9 116.19 95.63 134.06 95.63 134.06 79.9"/><path class="cls-6" d="M235.93,24.79" transform="translate(-230.17 -19.5)"/><polygon class="cls-5" points="16.06 100.3 15.95 115.84 23.74 121.36 23.85 100.3 16.06 100.3"/><polygon class="cls-5" points="36.02 100.3 35.91 129.99 43.77 135.56 43.89 100.3 36.02 100.3"/><polygon class="cls-5" points="56.06 100.3 55.95 144.19 63.73 149.71 63.85 100.3 56.06 100.3"/><polygon class="cls-5" points="76.1 100.3 75.98 149.58 83.77 144.06 83.88 100.3 76.1 100.3"/><polygon class="cls-5" points="96.06 100.3 95.94 135.43 103.73 129.91 103.84 100.3 96.06 100.3"/><polygon class="cls-5" points="116.09 100.3 115.98 121.23 123.77 115.72 123.88 100.3 116.09 100.3"/><path class="cls-6" d="M299.94,175.21" transform="translate(-230.17 -19.5)"/><path class="cls-5" d="M237.9,87.44l4.8-4.27a17.51,17.51,0,0,0,8.62,2.64c3.14,0,4.61-.87,4.61-2.26s-2-2-5-2.91l-4.52-1.39c-3.72-1.07-7.19-3.33-7.19-7.07,0-4.34,5.33-7.8,12.85-7.8a20.11,20.11,0,0,1,11.51,3.39l-4.23,3.89a14.33,14.33,0,0,0-7.28-2c-2.62,0-4.24.76-4.24,2.15s2.24,2,5.38,2.88L257.64,76c4.38,1.29,7,3.44,7,7.08,0,4.3-4.95,8.08-13.51,8.08A24.44,24.44,0,0,1,237.9,87.44Z" transform="translate(-230.17 -19.5)"/><path class="cls-5" d="M268.78,86.92,284.05,70h-13.8V64.86h24.27v3.71L279.24,85.46h15.42v5.2H268.78Z" transform="translate(-230.17 -19.5)"/><path class="cls-5" d="M307.79,70h-9.56V64.86h27.69V70h-9.61V90.66h-8.52Z" transform="translate(-230.17 -19.5)"/><path class="cls-5" d="M331.68,78.52V64.86h8.47V79.18c0,4.89,2,6.63,5.9,6.63s6-1.74,6-6.63V64.86h8.18V78.52c0,8.71-4.75,12.63-14.17,12.63S331.68,87.23,331.68,78.52Z" transform="translate(-230.17 -19.5)"/><line class="cls-4" x1="5.76" y1="75.35" x2="134" y2="75.35"/><path class="cls-6" d="M235.93,24.79" transform="translate(-230.17 -19.5)"/><path class="cls-6" d="M235.82,128.31" transform="translate(-230.17 -19.5)"/><path class="cls-6" d="M364.06,128.31" transform="translate(-230.17 -19.5)"/><path class="cls-6" d="M364.17,24.79" transform="translate(-230.17 -19.5)"/></svg>